<svg width="67" height="36" viewBox="0 0 67 36" fill="none" xmlns="http://www.w3.org/2000/svg">
<circle cx="18" cy="18" r="18" fill="#C9F31D"/>
<path d="M5.56 25H5.3L7.04 11H7.7L11.9 23.94L16.08 11H16.74L18.48 25H16.82L15.44 13.8L11.82 25H10.56L6.9 13.94L5.56 25ZM21.2789 11.16C22.8256 11.0533 24.1922 11 25.3789 11C28.6722 11 30.3189 12.1 30.3189 14.3C30.3189 15.2333 30.0922 16.0667 29.6389 16.8C29.1856 17.5333 28.4056 18.02 27.2989 18.26L31.2989 25H29.4389L25.5189 18.38H22.9389V25H21.2789V11.16ZM25.3789 11.2C24.6056 11.2 23.7922 11.2467 22.9389 11.34V18.18H25.8989C27.7789 18.1 28.7189 16.82 28.7189 14.34C28.7189 13.3267 28.4389 12.5533 27.8789 12.02C27.3189 11.4733 26.4856 11.2 25.3789 11.2Z" fill="black"/>
<path d="M44.342 22C43.7073 22 43.2733 21.8787 43.04 21.636C42.8253 21.4307 42.718 21.2533 42.718 21.104V20.81C42.2607 21.6407 41.528 22.056 40.52 22.056C39.344 22.056 38.6767 21.524 38.518 20.46C38.4993 20.348 38.49 20.236 38.49 20.124C38.49 20.0027 38.5087 19.872 38.546 19.732C38.5833 19.592 38.6907 19.438 38.868 19.27C39.2227 18.934 40.002 18.7287 41.206 18.654C41.5047 18.626 41.78 18.612 42.032 18.612C42.284 18.612 42.5127 18.6213 42.718 18.64V16.316C42.6993 16.3067 42.6993 16.2647 42.718 16.19C42.7367 16.106 42.718 16.0033 42.662 15.882C42.6153 15.7513 42.55 15.6253 42.466 15.504C42.382 15.3827 42.2327 15.28 42.018 15.196C41.8033 15.1027 41.5233 15.056 41.178 15.056C40.8327 15.056 40.4267 15.1213 39.96 15.252C39.5027 15.3733 39.1667 15.4947 38.952 15.616L38.896 15.518C39.7267 15.1353 40.5713 14.944 41.43 14.944C42.3913 14.944 43.026 15.1167 43.334 15.462C43.5767 15.7327 43.698 16.0173 43.698 16.316V21.006C43.698 21.2767 43.7493 21.4867 43.852 21.636C43.964 21.776 44.076 21.8507 44.188 21.86L44.342 21.888H44.776V22H44.342ZM40.744 21.944C41.2387 21.944 41.682 21.776 42.074 21.44C42.4753 21.0947 42.69 20.7633 42.718 20.446V18.752C42.466 18.7333 42.2093 18.724 41.948 18.724C41.696 18.724 41.444 18.738 41.192 18.766C40.4827 18.85 40.0207 19.0087 39.806 19.242C39.5913 19.4753 39.484 19.7973 39.484 20.208C39.484 20.2827 39.4887 20.3667 39.498 20.46C39.582 21.4493 39.9973 21.944 40.744 21.944ZM51.4263 22C51.0437 22 50.7497 21.916 50.5443 21.748C50.3483 21.58 50.2457 21.412 50.2363 21.244L50.2223 21.006V16.61C50.2223 15.8727 50.0263 15.4013 49.6343 15.196C49.4477 15.1027 49.2097 15.056 48.9203 15.056C48.3417 15.056 47.819 15.294 47.3523 15.77C46.895 16.2367 46.6663 16.6567 46.6663 17.03V22H45.6863V11.514H46.6663V16.596C46.8157 16.1947 47.1003 15.8213 47.5203 15.476C47.9403 15.1213 48.4117 14.944 48.9343 14.944C49.8397 14.944 50.4417 15.1027 50.7403 15.42C51.0483 15.728 51.2023 16.1293 51.2023 16.624V21.006C51.2023 21.2767 51.2537 21.4867 51.3563 21.636C51.4683 21.776 51.5757 21.8507 51.6783 21.86L51.8463 21.888H52.2803V22H51.4263ZM54.4802 22C54.0975 22 53.8035 21.916 53.5982 21.748C53.4022 21.58 53.2995 21.412 53.2902 21.244L53.2762 21.006V15H54.2562V21.006C54.2562 21.2767 54.3075 21.4867 54.4102 21.636C54.5222 21.776 54.6295 21.8507 54.7322 21.86L54.9002 21.888H55.3342V22H54.4802ZM53.3602 13.432C53.2482 13.32 53.1922 13.18 53.1922 13.012C53.1922 12.844 53.2482 12.704 53.3602 12.592C53.4722 12.4707 53.6122 12.41 53.7802 12.41C53.9482 12.41 54.0882 12.4707 54.2002 12.592C54.3215 12.704 54.3822 12.844 54.3822 13.012C54.3822 13.18 54.3215 13.32 54.2002 13.432C54.0882 13.544 53.9482 13.6 53.7802 13.6C53.6122 13.6 53.4722 13.544 53.3602 13.432ZM64.625 16.61C64.625 16.0407 64.5504 15.6393 64.401 15.406C64.2517 15.1727 63.967 15.056 63.547 15.056C62.987 15.056 62.4877 15.2893 62.049 15.756C61.6197 16.2227 61.405 16.6427 61.405 17.016V22H60.425V16.61C60.425 16.0407 60.3504 15.6393 60.201 15.406C60.0517 15.1727 59.7344 15.056 59.249 15.056C58.7637 15.056 58.3017 15.28 57.863 15.728C57.4337 16.176 57.2004 16.5913 57.163 16.974V22H56.183V15H57.163V16.582C57.3124 16.1807 57.5877 15.8073 57.989 15.462C58.3904 15.1167 58.8384 14.944 59.333 14.944C59.8277 14.944 60.2197 14.9907 60.509 15.084C60.8077 15.168 61.0177 15.3033 61.139 15.49C61.2604 15.6767 61.335 15.84 61.363 15.98C61.391 16.12 61.405 16.316 61.405 16.568C61.5544 16.1667 61.825 15.798 62.217 15.462C62.609 15.1167 63.029 14.944 63.477 14.944C63.925 14.944 64.2844 14.9813 64.555 15.056C64.8257 15.1307 65.0264 15.2147 65.157 15.308C65.297 15.4013 65.3997 15.5367 65.465 15.714C65.5397 15.8913 65.5817 16.036 65.591 16.148C65.6004 16.26 65.605 16.4187 65.605 16.624V21.006C65.605 21.2767 65.6564 21.4867 65.759 21.636C65.871 21.776 65.983 21.8507 66.095 21.86L66.249 21.888H66.683V22H65.829C65.4464 22 65.1524 21.916 64.947 21.748C64.751 21.58 64.6484 21.412 64.639 21.244L64.625 21.006V16.61Z" fill="black"/>
</svg>
