<svg width="43" height="43" viewBox="0 0 43 43" fill="none" xmlns="http://www.w3.org/2000/svg">
<circle cx="21.5" cy="21.5" r="21.5" fill="#C9F31D"/>
<path d="M21.682 25.704C21.67 25.848 21.652 25.998 21.628 26.154C21.604 26.31 21.562 26.454 21.502 26.586C21.442 26.73 21.364 26.838 21.268 26.91C21.136 27.03 20.98 27.096 20.8 27.108C20.632 27.168 20.47 27.186 20.314 27.162C20.158 27.138 20.014 27.096 19.882 27.036C19.714 26.928 19.588 26.802 19.504 26.658C19.432 26.502 19.378 26.34 19.342 26.172C19.306 26.004 19.288 25.83 19.288 25.65C19.288 25.47 19.288 25.302 19.288 25.146V23.742L19.27 20.988C19.27 20.796 19.27 20.646 19.27 20.538C19.27 20.43 19.27 20.334 19.27 20.25C19.27 20.154 19.264 20.052 19.252 19.944C19.252 19.824 19.252 19.656 19.252 19.44C19.252 19.404 19.252 19.344 19.252 19.26C19.264 19.164 19.258 18.918 19.234 18.522C18.766 19.302 18.376 19.932 18.064 20.412C17.764 20.88 17.506 21.246 17.29 21.51C17.086 21.762 16.906 21.936 16.75 22.032C16.594 22.116 16.432 22.164 16.264 22.176C16.168 22.188 16.072 22.17 15.976 22.122C15.88 22.074 15.784 22.014 15.688 21.942C15.604 21.87 15.52 21.798 15.436 21.726C15.364 21.642 15.304 21.564 15.256 21.492C14.968 21.132 14.644 20.7 14.284 20.196C13.924 19.692 13.552 19.08 13.168 18.36C13.168 18.372 13.162 18.57 13.15 18.954C13.15 19.338 13.15 19.818 13.15 20.394C13.15 20.958 13.144 21.57 13.132 22.23C13.132 22.878 13.126 23.484 13.114 24.048C13.114 24.612 13.108 25.086 13.096 25.47C13.084 25.842 13.072 26.028 13.06 26.028C13.06 26.232 13.012 26.424 12.916 26.604C12.82 26.772 12.688 26.91 12.52 27.018C12.364 27.126 12.178 27.186 11.962 27.198C11.746 27.21 11.512 27.15 11.26 27.018C11.104 26.922 10.984 26.784 10.9 26.604C10.828 26.424 10.78 26.256 10.756 26.1C10.744 25.932 10.732 25.77 10.72 25.614C10.72 25.458 10.72 25.296 10.72 25.128L10.738 23.724L10.756 20.952V18.54C10.756 17.496 10.792 16.47 10.864 15.462C10.864 15.33 10.876 15.21 10.9 15.102C10.936 14.982 10.978 14.868 11.026 14.76C11.122 14.568 11.248 14.424 11.404 14.328C11.584 14.22 11.776 14.166 11.98 14.166C12.064 14.166 12.142 14.172 12.214 14.184C12.298 14.184 12.376 14.19 12.448 14.202C12.688 14.25 12.892 14.394 13.06 14.634C13.24 14.862 13.408 15.06 13.564 15.228C13.66 15.336 13.762 15.468 13.87 15.624C13.978 15.78 14.086 15.942 14.194 16.11C14.302 16.278 14.404 16.44 14.5 16.596C14.596 16.752 14.68 16.89 14.752 17.01C15.064 17.514 15.34 17.976 15.58 18.396C15.832 18.816 16.066 19.176 16.282 19.476C16.318 19.44 16.36 19.392 16.408 19.332C16.456 19.26 16.504 19.188 16.552 19.116C16.612 19.032 16.66 18.954 16.696 18.882C16.744 18.81 16.78 18.75 16.804 18.702C16.924 18.51 17.044 18.324 17.164 18.144C17.284 17.952 17.41 17.754 17.542 17.55C17.686 17.334 17.83 17.1 17.974 16.848C18.13 16.596 18.31 16.308 18.514 15.984C18.598 15.84 18.706 15.666 18.838 15.462C18.97 15.258 19.12 15.06 19.288 14.868C19.456 14.676 19.63 14.514 19.81 14.382C20.002 14.238 20.194 14.166 20.386 14.166C20.482 14.166 20.566 14.172 20.638 14.184C20.71 14.184 20.782 14.19 20.854 14.202C20.998 14.214 21.136 14.28 21.268 14.4C21.364 14.496 21.436 14.598 21.484 14.706C21.532 14.862 21.562 14.994 21.574 15.102C21.586 15.186 21.592 15.264 21.592 15.336C21.604 15.408 21.61 15.48 21.61 15.552C21.61 16.224 21.616 16.89 21.628 17.55C21.64 18.21 21.646 18.876 21.646 19.548C21.646 20.364 21.646 21.204 21.646 22.068C21.658 22.932 21.664 23.772 21.664 24.588C21.664 24.756 21.67 24.936 21.682 25.128C21.694 25.32 21.694 25.512 21.682 25.704ZM32.7873 26.208C32.7993 26.328 32.7873 26.442 32.7513 26.55C32.7273 26.622 32.6913 26.682 32.6433 26.73C32.6073 26.778 32.5593 26.826 32.4993 26.874C32.3913 26.946 32.2593 27.012 32.1033 27.072C32.0073 27.096 31.9113 27.114 31.8153 27.126C31.7313 27.15 31.6413 27.15 31.5453 27.126C31.3533 27.114 31.1853 27.042 31.0413 26.91C30.8373 26.742 30.6693 26.556 30.5373 26.352C30.4773 26.256 30.4113 26.148 30.3393 26.028C30.2673 25.908 30.2013 25.782 30.1413 25.65L28.1433 21.852C28.0473 21.852 27.9513 21.858 27.8553 21.87C27.7593 21.87 27.6633 21.876 27.5673 21.888C27.3153 21.912 27.0753 21.918 26.8473 21.906C26.6313 21.894 26.4033 21.894 26.1633 21.906H25.8213V25.164C25.8213 25.26 25.8153 25.35 25.8033 25.434C25.8033 25.518 25.8033 25.608 25.8033 25.704C25.8033 25.764 25.7973 25.842 25.7853 25.938C25.7853 26.034 25.7793 26.124 25.7673 26.208C25.7433 26.34 25.6893 26.478 25.6053 26.622C25.5213 26.754 25.4073 26.868 25.2633 26.964C25.0113 27.12 24.7053 27.162 24.3453 27.09C24.1893 27.054 24.0393 26.994 23.8953 26.91C23.8473 26.874 23.8053 26.832 23.7693 26.784C23.7333 26.724 23.7033 26.664 23.6793 26.604C23.6553 26.544 23.6313 26.484 23.6073 26.424C23.5953 26.352 23.5773 26.286 23.5533 26.226C23.5173 26.106 23.4993 25.992 23.4993 25.884V15.66C23.4993 15.588 23.4993 15.516 23.4993 15.444C23.5113 15.36 23.5233 15.288 23.5353 15.228C23.5473 15.096 23.5893 14.964 23.6613 14.832C23.6973 14.688 23.7573 14.586 23.8413 14.526C23.9133 14.454 24.0213 14.394 24.1653 14.346C24.3213 14.286 24.5433 14.262 24.8313 14.274C25.3713 14.286 25.9053 14.292 26.4333 14.292C26.9613 14.292 27.4893 14.304 28.0173 14.328C28.3653 14.352 28.7313 14.394 29.1153 14.454C29.5113 14.502 29.8773 14.592 30.2133 14.724C30.4293 14.808 30.6273 14.892 30.8073 14.976C31.0353 15.108 31.2153 15.234 31.3473 15.354C31.7673 15.738 32.0853 16.2 32.3013 16.74C32.5173 17.28 32.6253 17.826 32.6253 18.378C32.6253 19.026 32.4693 19.62 32.1573 20.16C31.8573 20.7 31.3713 21.102 30.6993 21.366C30.6753 21.39 30.6393 21.408 30.5913 21.42C30.5553 21.42 30.5253 21.426 30.5013 21.438L32.1573 24.768L32.3193 25.056C32.3433 25.104 32.3733 25.158 32.4093 25.218C32.4453 25.278 32.4753 25.338 32.4993 25.398C32.5353 25.458 32.5653 25.524 32.5893 25.596C32.6253 25.668 32.6613 25.734 32.6973 25.794C32.7333 25.962 32.7633 26.1 32.7873 26.208ZM28.2873 19.8C28.5033 19.8 28.7073 19.764 28.8993 19.692C29.1033 19.608 29.2833 19.5 29.4393 19.368C29.6073 19.236 29.7453 19.086 29.8533 18.918C29.9613 18.738 30.0213 18.546 30.0333 18.342C30.0813 17.742 29.9253 17.298 29.5653 17.01C29.2053 16.71 28.7313 16.548 28.1433 16.524C27.7953 16.5 27.4113 16.488 26.9913 16.488C26.5833 16.488 26.1933 16.488 25.8213 16.488C25.8333 16.98 25.8333 17.484 25.8213 18C25.8213 18.504 25.8213 19.104 25.8213 19.8H28.2873Z" fill="black"/>
</svg>
