<svg width="61" height="32" viewBox="0 0 61 32" fill="none" xmlns="http://www.w3.org/2000/svg">
<circle cx="16" cy="16" r="16" fill="#C9F31D"/>
<path d="M15.682 20.704C15.67 20.848 15.652 20.998 15.628 21.154C15.604 21.31 15.562 21.454 15.502 21.586C15.442 21.73 15.364 21.838 15.268 21.91C15.136 22.03 14.98 22.096 14.8 22.108C14.632 22.168 14.47 22.186 14.314 22.162C14.158 22.138 14.014 22.096 13.882 22.036C13.714 21.928 13.588 21.802 13.504 21.658C13.432 21.502 13.378 21.34 13.342 21.172C13.306 21.004 13.288 20.83 13.288 20.65C13.288 20.47 13.288 20.302 13.288 20.146V18.742L13.27 15.988C13.27 15.796 13.27 15.646 13.27 15.538C13.27 15.43 13.27 15.334 13.27 15.25C13.27 15.154 13.264 15.052 13.252 14.944C13.252 14.824 13.252 14.656 13.252 14.44C13.252 14.404 13.252 14.344 13.252 14.26C13.264 14.164 13.258 13.918 13.234 13.522C12.766 14.302 12.376 14.932 12.064 15.412C11.764 15.88 11.506 16.246 11.29 16.51C11.086 16.762 10.906 16.936 10.75 17.032C10.594 17.116 10.432 17.164 10.264 17.176C10.168 17.188 10.072 17.17 9.976 17.122C9.88 17.074 9.784 17.014 9.688 16.942C9.604 16.87 9.52 16.798 9.436 16.726C9.364 16.642 9.304 16.564 9.256 16.492C8.968 16.132 8.644 15.7 8.284 15.196C7.924 14.692 7.552 14.08 7.168 13.36C7.168 13.372 7.162 13.57 7.15 13.954C7.15 14.338 7.15 14.818 7.15 15.394C7.15 15.958 7.144 16.57 7.132 17.23C7.132 17.878 7.126 18.484 7.114 19.048C7.114 19.612 7.108 20.086 7.096 20.47C7.084 20.842 7.072 21.028 7.06 21.028C7.06 21.232 7.012 21.424 6.916 21.604C6.82 21.772 6.688 21.91 6.52 22.018C6.364 22.126 6.178 22.186 5.962 22.198C5.746 22.21 5.512 22.15 5.26 22.018C5.104 21.922 4.984 21.784 4.9 21.604C4.828 21.424 4.78 21.256 4.756 21.1C4.744 20.932 4.732 20.77 4.72 20.614C4.72 20.458 4.72 20.296 4.72 20.128L4.738 18.724L4.756 15.952V13.54C4.756 12.496 4.792 11.47 4.864 10.462C4.864 10.33 4.876 10.21 4.9 10.102C4.936 9.982 4.978 9.868 5.026 9.76C5.122 9.568 5.248 9.424 5.404 9.328C5.584 9.22 5.776 9.166 5.98 9.166C6.064 9.166 6.142 9.172 6.214 9.184C6.298 9.184 6.376 9.19 6.448 9.202C6.688 9.25 6.892 9.394 7.06 9.634C7.24 9.862 7.408 10.06 7.564 10.228C7.66 10.336 7.762 10.468 7.87 10.624C7.978 10.78 8.086 10.942 8.194 11.11C8.302 11.278 8.404 11.44 8.5 11.596C8.596 11.752 8.68 11.89 8.752 12.01C9.064 12.514 9.34 12.976 9.58 13.396C9.832 13.816 10.066 14.176 10.282 14.476C10.318 14.44 10.36 14.392 10.408 14.332C10.456 14.26 10.504 14.188 10.552 14.116C10.612 14.032 10.66 13.954 10.696 13.882C10.744 13.81 10.78 13.75 10.804 13.702C10.924 13.51 11.044 13.324 11.164 13.144C11.284 12.952 11.41 12.754 11.542 12.55C11.686 12.334 11.83 12.1 11.974 11.848C12.13 11.596 12.31 11.308 12.514 10.984C12.598 10.84 12.706 10.666 12.838 10.462C12.97 10.258 13.12 10.06 13.288 9.868C13.456 9.676 13.63 9.514 13.81 9.382C14.002 9.238 14.194 9.166 14.386 9.166C14.482 9.166 14.566 9.172 14.638 9.184C14.71 9.184 14.782 9.19 14.854 9.202C14.998 9.214 15.136 9.28 15.268 9.4C15.364 9.496 15.436 9.598 15.484 9.706C15.532 9.862 15.562 9.994 15.574 10.102C15.586 10.186 15.592 10.264 15.592 10.336C15.604 10.408 15.61 10.48 15.61 10.552C15.61 11.224 15.616 11.89 15.628 12.55C15.64 13.21 15.646 13.876 15.646 14.548C15.646 15.364 15.646 16.204 15.646 17.068C15.658 17.932 15.664 18.772 15.664 19.588C15.664 19.756 15.67 19.936 15.682 20.128C15.694 20.32 15.694 20.512 15.682 20.704ZM26.7873 21.208C26.7993 21.328 26.7873 21.442 26.7513 21.55C26.7273 21.622 26.6913 21.682 26.6433 21.73C26.6073 21.778 26.5593 21.826 26.4993 21.874C26.3913 21.946 26.2593 22.012 26.1033 22.072C26.0073 22.096 25.9113 22.114 25.8153 22.126C25.7313 22.15 25.6413 22.15 25.5453 22.126C25.3533 22.114 25.1853 22.042 25.0413 21.91C24.8373 21.742 24.6693 21.556 24.5373 21.352C24.4773 21.256 24.4113 21.148 24.3393 21.028C24.2673 20.908 24.2013 20.782 24.1413 20.65L22.1433 16.852C22.0473 16.852 21.9513 16.858 21.8553 16.87C21.7593 16.87 21.6633 16.876 21.5673 16.888C21.3153 16.912 21.0753 16.918 20.8473 16.906C20.6313 16.894 20.4033 16.894 20.1633 16.906H19.8213V20.164C19.8213 20.26 19.8153 20.35 19.8033 20.434C19.8033 20.518 19.8033 20.608 19.8033 20.704C19.8033 20.764 19.7973 20.842 19.7853 20.938C19.7853 21.034 19.7793 21.124 19.7673 21.208C19.7433 21.34 19.6893 21.478 19.6053 21.622C19.5213 21.754 19.4073 21.868 19.2633 21.964C19.0113 22.12 18.7053 22.162 18.3453 22.09C18.1893 22.054 18.0393 21.994 17.8953 21.91C17.8473 21.874 17.8053 21.832 17.7693 21.784C17.7333 21.724 17.7033 21.664 17.6793 21.604C17.6553 21.544 17.6313 21.484 17.6073 21.424C17.5953 21.352 17.5773 21.286 17.5533 21.226C17.5173 21.106 17.4993 20.992 17.4993 20.884V10.66C17.4993 10.588 17.4993 10.516 17.4993 10.444C17.5113 10.36 17.5233 10.288 17.5353 10.228C17.5473 10.096 17.5893 9.964 17.6613 9.832C17.6973 9.688 17.7573 9.586 17.8413 9.526C17.9133 9.454 18.0213 9.394 18.1653 9.346C18.3213 9.286 18.5433 9.262 18.8313 9.274C19.3713 9.286 19.9053 9.292 20.4333 9.292C20.9613 9.292 21.4893 9.304 22.0173 9.328C22.3653 9.352 22.7313 9.394 23.1153 9.454C23.5113 9.502 23.8773 9.592 24.2133 9.724C24.4293 9.808 24.6273 9.892 24.8073 9.976C25.0353 10.108 25.2153 10.234 25.3473 10.354C25.7673 10.738 26.0853 11.2 26.3013 11.74C26.5173 12.28 26.6253 12.826 26.6253 13.378C26.6253 14.026 26.4693 14.62 26.1573 15.16C25.8573 15.7 25.3713 16.102 24.6993 16.366C24.6753 16.39 24.6393 16.408 24.5913 16.42C24.5553 16.42 24.5253 16.426 24.5013 16.438L26.1573 19.768L26.3193 20.056C26.3433 20.104 26.3733 20.158 26.4093 20.218C26.4453 20.278 26.4753 20.338 26.4993 20.398C26.5353 20.458 26.5653 20.524 26.5893 20.596C26.6253 20.668 26.6613 20.734 26.6973 20.794C26.7333 20.962 26.7633 21.1 26.7873 21.208ZM22.2873 14.8C22.5033 14.8 22.7073 14.764 22.8993 14.692C23.1033 14.608 23.2833 14.5 23.4393 14.368C23.6073 14.236 23.7453 14.086 23.8533 13.918C23.9613 13.738 24.0213 13.546 24.0333 13.342C24.0813 12.742 23.9253 12.298 23.5653 12.01C23.2053 11.71 22.7313 11.548 22.1433 11.524C21.7953 11.5 21.4113 11.488 20.9913 11.488C20.5833 11.488 20.1933 11.488 19.8213 11.488C19.8333 11.98 19.8333 12.484 19.8213 13C19.8213 13.504 19.8213 14.104 19.8213 14.8H22.2873ZM29.7655 14.422C30.1255 14.242 30.5035 14.116 30.8995 14.044C31.2955 13.96 31.6855 13.942 32.0695 13.99C32.4655 14.026 32.8435 14.128 33.2035 14.296C33.5635 14.452 33.8995 14.68 34.2115 14.98C34.5235 15.292 34.7635 15.634 34.9315 16.006C35.0995 16.378 35.2195 16.792 35.2915 17.248C35.3395 17.56 35.4175 17.848 35.5255 18.112C35.6335 18.376 35.7475 18.64 35.8675 18.904C35.9995 19.168 36.1195 19.432 36.2275 19.696C36.3475 19.96 36.4435 20.236 36.5155 20.524C36.5755 20.8 36.5515 21.07 36.4435 21.334C36.3475 21.586 36.1435 21.742 35.8315 21.802C35.6515 21.838 35.4775 21.826 35.3095 21.766C35.1535 21.694 35.0095 21.598 34.8775 21.478C34.7455 21.346 34.6255 21.208 34.5175 21.064C34.4215 20.908 34.3315 20.764 34.2475 20.632C33.9715 20.992 33.6715 21.274 33.3475 21.478C33.0235 21.67 32.6335 21.796 32.1775 21.856C31.7935 21.904 31.4275 21.916 31.0795 21.892C30.7315 21.868 30.3595 21.802 29.9635 21.694C29.4475 21.562 29.0215 21.334 28.6855 21.01C28.3615 20.674 28.1095 20.29 27.9295 19.858C27.7615 19.414 27.6715 18.94 27.6595 18.436C27.6475 17.932 27.7075 17.434 27.8395 16.942C28.0075 16.294 28.2595 15.766 28.5955 15.358C28.9315 14.95 29.3215 14.638 29.7655 14.422ZM30.2155 16.528C30.0475 16.696 29.9155 16.894 29.8195 17.122C29.7235 17.35 29.6635 17.59 29.6395 17.842C29.6275 18.094 29.6515 18.346 29.7115 18.598C29.7715 18.85 29.8675 19.072 29.9995 19.264C30.1195 19.432 30.3235 19.576 30.6115 19.696C30.8995 19.804 31.1995 19.87 31.5115 19.894C31.8715 19.918 32.1835 19.822 32.4475 19.606C32.7235 19.39 32.9275 19.12 33.0595 18.796C33.2035 18.46 33.2695 18.106 33.2575 17.734C33.2455 17.35 33.1435 17.002 32.9515 16.69C32.8075 16.462 32.6155 16.294 32.3755 16.186C32.1475 16.078 31.9015 16.024 31.6375 16.024C31.3735 16.012 31.1095 16.054 30.8455 16.15C30.5935 16.234 30.3835 16.36 30.2155 16.528ZM45.033 18.454C45.045 18.694 45.051 18.946 45.051 19.21C45.051 19.462 45.045 19.696 45.033 19.912C45.021 20.236 45.003 20.536 44.979 20.812C44.955 21.076 44.907 21.304 44.835 21.496C44.763 21.676 44.649 21.814 44.493 21.91C44.349 21.994 44.145 22.018 43.881 21.982C43.605 21.946 43.407 21.814 43.287 21.586C43.167 21.358 43.083 21.1 43.035 20.812C42.999 20.512 42.987 20.212 42.999 19.912C43.011 19.612 43.011 19.378 42.999 19.21C42.987 18.946 42.975 18.646 42.963 18.31C42.963 17.962 42.927 17.638 42.855 17.338C42.795 17.026 42.687 16.762 42.531 16.546C42.375 16.33 42.141 16.216 41.829 16.204C41.433 16.18 41.127 16.21 40.911 16.294C40.707 16.378 40.557 16.504 40.461 16.672C40.365 16.828 40.305 17.02 40.281 17.248C40.269 17.476 40.245 17.722 40.209 17.986L40.191 18.688V20.002C40.191 20.218 40.185 20.446 40.173 20.686C40.173 20.914 40.137 21.124 40.065 21.316C39.993 21.508 39.879 21.67 39.723 21.802C39.579 21.934 39.363 22 39.075 22C38.715 22 38.445 21.886 38.265 21.658C38.097 21.418 38.013 21.124 38.013 20.776V10.426C38.013 10.354 38.013 10.288 38.013 10.228C38.025 10.156 38.037 10.084 38.049 10.012C38.073 9.94 38.091 9.874 38.103 9.814C38.115 9.742 38.133 9.676 38.157 9.616C38.193 9.496 38.253 9.406 38.337 9.346C38.397 9.286 38.457 9.238 38.517 9.202C38.577 9.166 38.643 9.142 38.715 9.13C38.775 9.118 38.841 9.112 38.913 9.112C38.985 9.1 39.057 9.094 39.129 9.094C39.309 9.094 39.483 9.148 39.651 9.256C39.723 9.304 39.789 9.358 39.849 9.418C39.909 9.466 39.957 9.538 39.993 9.634C40.089 9.862 40.137 10.078 40.137 10.282C40.149 10.342 40.155 10.432 40.155 10.552C40.167 10.66 40.173 10.774 40.173 10.894C40.173 11.014 40.173 11.134 40.173 11.254C40.185 11.362 40.191 11.446 40.191 11.506V11.596C40.203 11.98 40.209 12.37 40.209 12.766C40.209 13.162 40.209 13.564 40.209 13.972V14.278C40.713 14.11 41.241 14.032 41.793 14.044C42.345 14.044 42.837 14.152 43.269 14.368C43.713 14.596 44.049 14.854 44.277 15.142C44.517 15.43 44.691 15.748 44.799 16.096C44.907 16.444 44.967 16.816 44.979 17.212C45.003 17.608 45.021 18.022 45.033 18.454ZM48.7536 15.178C48.7536 15.514 48.7536 15.892 48.7536 16.312C48.7656 16.732 48.7716 17.17 48.7716 17.626C48.7716 18.07 48.7716 18.514 48.7716 18.958C48.7716 19.39 48.7656 19.792 48.7536 20.164C48.7416 20.344 48.7236 20.542 48.6996 20.758C48.6756 20.962 48.6276 21.154 48.5556 21.334C48.4836 21.514 48.3696 21.664 48.2136 21.784C48.0696 21.892 47.8716 21.94 47.6196 21.928C47.2476 21.904 46.9776 21.742 46.8096 21.442C46.6536 21.142 46.5636 20.722 46.5396 20.182C46.5396 19.906 46.5336 19.588 46.5216 19.228C46.5216 18.868 46.5156 18.502 46.5036 18.13C46.5036 17.758 46.5036 17.398 46.5036 17.05C46.5036 16.69 46.5036 16.366 46.5036 16.078C46.5036 15.91 46.4976 15.706 46.4856 15.466C46.4856 15.226 46.4916 14.98 46.5036 14.728C46.5156 14.476 46.5456 14.236 46.5936 14.008C46.6416 13.768 46.7196 13.57 46.8276 13.414C46.9116 13.318 47.0316 13.246 47.1876 13.198C47.3436 13.138 47.5056 13.108 47.6736 13.108C47.8536 13.108 48.0216 13.138 48.1776 13.198C48.3456 13.258 48.4656 13.342 48.5376 13.45C48.5856 13.522 48.6216 13.624 48.6456 13.756C48.6696 13.888 48.6876 14.038 48.6996 14.206C48.7236 14.362 48.7356 14.53 48.7356 14.71C48.7476 14.878 48.7536 15.034 48.7536 15.178ZM48.0696 11.542C47.6976 11.638 47.3856 11.602 47.1336 11.434C46.8936 11.254 46.7436 10.99 46.6836 10.642C46.6356 10.39 46.6536 10.168 46.7376 9.976C46.8216 9.784 46.9476 9.64 47.1156 9.544C47.2836 9.436 47.4756 9.388 47.6916 9.4C47.9076 9.412 48.1236 9.496 48.3396 9.652C48.5436 9.796 48.6876 9.964 48.7716 10.156C48.8676 10.348 48.8976 10.534 48.8616 10.714C48.8376 10.894 48.7596 11.062 48.6276 11.218C48.4956 11.362 48.3096 11.47 48.0696 11.542ZM60.0912 17.806C60.1152 18.19 60.1272 18.556 60.1272 18.904C60.1272 19.24 60.1152 19.6 60.0912 19.984C60.0912 20.128 60.0912 20.29 60.0912 20.47C60.0912 20.65 60.0792 20.824 60.0552 20.992C60.0312 21.16 59.9892 21.316 59.9292 21.46C59.8692 21.604 59.7792 21.718 59.6592 21.802C59.5152 21.898 59.3532 21.964 59.1732 22C58.9932 22.024 58.8252 22.012 58.6692 21.964C58.5132 21.916 58.3752 21.826 58.2552 21.694C58.1472 21.562 58.0872 21.376 58.0752 21.136C58.0392 20.584 58.0212 20.032 58.0212 19.48C58.0212 19.204 58.0152 18.94 58.0032 18.688C58.0032 18.436 58.0092 18.082 58.0212 17.626C58.0212 17.398 58.0032 17.14 57.9672 16.852C57.9312 16.552 57.8412 16.342 57.6972 16.222C57.5892 16.126 57.4692 16.072 57.3372 16.06C57.2052 16.036 57.0732 16.048 56.9412 16.096C56.8212 16.144 56.7132 16.234 56.6172 16.366C56.5212 16.486 56.4552 16.642 56.4192 16.834C56.4192 16.99 56.4132 17.152 56.4012 17.32C56.4012 17.476 56.4072 17.626 56.4192 17.77C56.4312 18.154 56.4372 18.52 56.4372 18.868C56.4372 19.204 56.4312 19.564 56.4192 19.948C56.4072 20.104 56.4012 20.272 56.4012 20.452C56.4132 20.632 56.4132 20.812 56.4012 20.992C56.3892 21.16 56.3532 21.316 56.2932 21.46C56.2452 21.604 56.1552 21.718 56.0232 21.802C55.8792 21.898 55.7232 21.958 55.5552 21.982C55.3992 21.994 55.2492 21.97 55.1052 21.91C54.9732 21.838 54.8532 21.73 54.7452 21.586C54.6492 21.442 54.5952 21.25 54.5832 21.01C54.5592 20.734 54.5412 20.482 54.5292 20.254C54.5292 20.014 54.5292 19.762 54.5292 19.498C54.5292 19.222 54.5352 18.94 54.5472 18.652C54.5592 18.352 54.5532 18.064 54.5292 17.788C54.5292 17.704 54.5232 17.608 54.5112 17.5C54.5112 17.38 54.5052 17.26 54.4932 17.14C54.4932 17.02 54.4812 16.906 54.4572 16.798C54.4452 16.678 54.4212 16.582 54.3852 16.51C54.2892 16.342 54.1152 16.234 53.8632 16.186C53.6232 16.138 53.4192 16.156 53.2512 16.24C53.0832 16.324 52.9572 16.432 52.8732 16.564C52.7892 16.696 52.7292 16.84 52.6932 16.996C52.6572 17.152 52.6392 17.32 52.6392 17.5C52.6392 17.668 52.6392 17.83 52.6392 17.986C52.6392 18.766 52.6392 19.444 52.6392 20.02C52.6512 20.584 52.5912 21.04 52.4592 21.388C52.3992 21.568 52.2732 21.706 52.0812 21.802C51.9012 21.898 51.7032 21.946 51.4872 21.946C51.2832 21.946 51.0912 21.898 50.9112 21.802C50.7312 21.706 50.6112 21.556 50.5512 21.352C50.5152 21.22 50.4792 21.034 50.4432 20.794C50.4192 20.542 50.4012 20.266 50.3892 19.966C50.3772 19.666 50.3712 19.366 50.3712 19.066C50.3712 18.754 50.3712 18.472 50.3712 18.22V15.628C50.3592 15.352 50.3532 15.052 50.3532 14.728C50.3532 14.404 50.4012 14.11 50.4972 13.846C50.5812 13.618 50.7132 13.474 50.8932 13.414C51.0732 13.342 51.2592 13.312 51.4512 13.324C51.6672 13.324 51.8352 13.384 51.9552 13.504C52.0872 13.612 52.1832 13.75 52.2432 13.918C52.3032 14.074 52.3392 14.254 52.3512 14.458C52.3632 14.65 52.3752 14.836 52.3872 15.016C52.5192 14.716 52.6752 14.47 52.8552 14.278C53.0472 14.074 53.3172 13.942 53.6652 13.882C54.5532 13.714 55.2612 13.942 55.7892 14.566C56.0292 14.326 56.3352 14.128 56.7072 13.972C56.9952 13.864 57.2892 13.816 57.5892 13.828C57.8892 13.828 58.1712 13.882 58.4352 13.99C58.7112 14.098 58.9572 14.254 59.1732 14.458C59.4012 14.662 59.5812 14.908 59.7132 15.196C59.8932 15.58 59.9952 16.006 60.0192 16.474C60.0432 16.942 60.0672 17.386 60.0912 17.806Z" fill="black"/>
</svg>
