<svg width="87" height="47" viewBox="0 0 87 47" fill="none" xmlns="http://www.w3.org/2000/svg">
<circle cx="23.5" cy="23.5" r="23.5" fill="#C9F31D"/>
<path d="M24.14 16.96V31H20.72V22.58L17.58 31H14.82L11.66 22.56V31H8.24V16.96H12.28L16.22 26.68L20.12 16.96H24.14ZM33.7594 31L30.8394 25.7H30.0194V31H26.5994V16.96H32.3394C33.446 16.96 34.386 17.1533 35.1594 17.54C35.946 17.9267 36.5327 18.46 36.9194 19.14C37.306 19.8067 37.4994 20.5533 37.4994 21.38C37.4994 22.3133 37.2327 23.1467 36.6994 23.88C36.1794 24.6133 35.406 25.1333 34.3794 25.44L37.6194 31H33.7594ZM30.0194 23.28H32.1394C32.766 23.28 33.2327 23.1267 33.5394 22.82C33.8594 22.5133 34.0194 22.08 34.0194 21.52C34.0194 20.9867 33.8594 20.5667 33.5394 20.26C33.2327 19.9533 32.766 19.8 32.1394 19.8H30.0194V23.28Z" fill="black"/>
<path d="M49.392 24.08C49.392 23.2773 49.5413 22.5727 49.84 21.966C50.148 21.3593 50.5633 20.8927 51.086 20.566C51.6087 20.2393 52.192 20.076 52.836 20.076C53.3867 20.076 53.8673 20.188 54.278 20.412C54.698 20.636 55.02 20.93 55.244 21.294V20.188H57.638V28H55.244V26.894C55.0107 27.258 54.684 27.552 54.264 27.776C53.8533 28 53.3727 28.112 52.822 28.112C52.1873 28.112 51.6087 27.9487 51.086 27.622C50.5633 27.286 50.148 26.8147 49.84 26.208C49.5413 25.592 49.392 24.8827 49.392 24.08ZM55.244 24.094C55.244 23.4967 55.076 23.0253 54.74 22.68C54.4133 22.3347 54.012 22.162 53.536 22.162C53.06 22.162 52.654 22.3347 52.318 22.68C51.9913 23.016 51.828 23.4827 51.828 24.08C51.828 24.6773 51.9913 25.1533 52.318 25.508C52.654 25.8533 53.06 26.026 53.536 26.026C54.012 26.026 54.4133 25.8533 54.74 25.508C55.076 25.1627 55.244 24.6913 55.244 24.094ZM64.172 20.104C65.068 20.104 65.7866 20.4027 66.328 21C66.8693 21.588 67.14 22.4 67.14 23.436V28H64.76V23.758C64.76 23.2353 64.6246 22.8293 64.354 22.54C64.0833 22.2507 63.7193 22.106 63.262 22.106C62.8046 22.106 62.4406 22.2507 62.17 22.54C61.8993 22.8293 61.764 23.2353 61.764 23.758V28H59.37V17.64H61.764V21.238C62.0066 20.8927 62.338 20.6173 62.758 20.412C63.178 20.2067 63.6493 20.104 64.172 20.104ZM70.0075 19.376C69.5875 19.376 69.2422 19.2547 68.9715 19.012C68.7102 18.76 68.5795 18.452 68.5795 18.088C68.5795 17.7147 68.7102 17.4067 68.9715 17.164C69.2422 16.912 69.5875 16.786 70.0075 16.786C70.4182 16.786 70.7542 16.912 71.0155 17.164C71.2862 17.4067 71.4215 17.7147 71.4215 18.088C71.4215 18.452 71.2862 18.76 71.0155 19.012C70.7542 19.2547 70.4182 19.376 70.0075 19.376ZM71.1975 20.188V28H68.8035V20.188H71.1975ZM82.9005 20.104C83.8711 20.104 84.6411 20.398 85.2105 20.986C85.7891 21.574 86.0785 22.3907 86.0785 23.436V28H83.6985V23.758C83.6985 23.254 83.5631 22.8667 83.2925 22.596C83.0311 22.316 82.6671 22.176 82.2005 22.176C81.7338 22.176 81.3651 22.316 81.0945 22.596C80.8331 22.8667 80.7025 23.254 80.7025 23.758V28H78.3225V23.758C78.3225 23.254 78.1871 22.8667 77.9165 22.596C77.6551 22.316 77.2911 22.176 76.8245 22.176C76.3578 22.176 75.9891 22.316 75.7185 22.596C75.4571 22.8667 75.3265 23.254 75.3265 23.758V28H72.9325V20.188H75.3265V21.168C75.5691 20.8413 75.8865 20.5847 76.2785 20.398C76.6705 20.202 77.1138 20.104 77.6085 20.104C78.1965 20.104 78.7191 20.23 79.1765 20.482C79.6431 20.734 80.0071 21.0933 80.2685 21.56C80.5391 21.1307 80.9078 20.7807 81.3745 20.51C81.8411 20.2393 82.3498 20.104 82.9005 20.104Z" fill="white"/>
</svg>
